<svg width="57" height="65" viewBox="0 0 57 65" fill="none" xmlns="http://www.w3.org/2000/svg">
<path fill-rule="evenodd" clip-rule="evenodd" d="M46.2217 20.6733C44.5706 20.3537 42.8578 20.2145 41.1055 20.2763C30.3341 20.6564 21.5881 28.5078 19.6731 38.6734C16.6478 35.8133 14.7018 31.8086 14.5434 27.3192C14.2236 18.2548 21.3125 10.6475 30.3768 10.3277C37.504 10.0762 43.7304 14.4051 46.2217 20.6733Z" fill="#251BE4"/>
<path fill-rule="evenodd" clip-rule="evenodd" d="M10.4876 43.7341C12.1259 44.1136 13.8325 44.3151 15.5858 44.3171C26.3639 44.3298 35.3903 36.8022 37.6743 26.7131C40.5934 29.6815 42.3923 33.7546 42.387 38.2468C42.3763 47.3168 35.015 54.6608 25.945 54.6501C18.8134 54.6417 12.7489 50.0888 10.4876 43.7341Z" fill="#1A13A2"/>
</svg>
